HIERARCHY
ROOT hip
{
	OFFSET 0.000000 0.000000 0.000000 
	CHANNELS 6 Xposition Yposition Zposition Xrotation Zrotation Yrotation
	JOINT abdomen
	{
		OFFSET 0.000000 3.402643 0.000000 
		CHANNELS 3 Xrotation Zrotation Yrotation
		JOINT chest
		{
			OFFSET 0.000000 8.438565 -0.680529 
			CHANNELS 3 Xrotation Zrotation Yrotation
			JOINT neck
			{
				OFFSET 0.000000 10.207942 -0.272212 
				CHANNELS 3 Xrotation Zrotation Yrotation
				JOINT head
				{
					OFFSET 0.000000 3.130431 0.000000 
					CHANNELS 3 Xrotation Zrotation Yrotation
					End Site
					{
						OFFSET 0.000000 3.130435 0.000000 
					}
				}
			}
			JOINT lCollar
			{
				OFFSET 3.470700 6.669187 -0.816635 
				CHANNELS 3 Yrotation Zrotation Xrotation
				JOINT lShldr
				{
					OFFSET 3.198488 0.000000 0.000000 
					CHANNELS 3 Zrotation Yrotation Xrotation
					JOINT lForeArm
					{
						OFFSET 10.139888 0.000000 0.000000 
						CHANNELS 3 Yrotation Zrotation Xrotation
						JOINT lHand
						{
							OFFSET 8.370511 0.000000 0.000000 
							CHANNELS 3 Zrotation Yrotation Xrotation
							End Site
							{
								OFFSET 4.083176 0.000000 0.000000 
							}
						}
					}
				}
			}
			JOINT rCollar
			{
				OFFSET -3.470700 6.669187 -0.816635 
				CHANNELS 3 Yrotation Zrotation Xrotation
				JOINT rShldr
				{
					OFFSET -3.198488 0.000000 0.000000 
					CHANNELS 3 Zrotation Yrotation Xrotation
					JOINT rForeArm
					{
						OFFSET -10.139888 0.000000 0.000000 
						CHANNELS 3 Yrotation Zrotation Xrotation
						JOINT rHand
						{
							OFFSET -8.370511 0.000000 0.000000 
							CHANNELS 3 Zrotation Yrotation Xrotation
							End Site
							{
								OFFSET -4.083176 0.000000 0.000000 
							}
						}
					}
				}
			}
		}
	}
	JOINT lThigh
	{
		OFFSET 5.308129 -1.633274 1.361059 
		CHANNELS 3 Xrotation Zrotation Yrotation
		JOINT lShin
		{
			OFFSET -2.041588 -20.007561 0.000000 
			CHANNELS 3 Xrotation Zrotation Yrotation
			JOINT lFoot
			{
				OFFSET 0.000000 -19.190928 -1.224953 
				CHANNELS 3 Xrotation Yrotation Zrotation
				End Site
				{
					OFFSET 0.000000 -2.449906 4.627600 
				}
			}
		}
	}
	JOINT rThigh
	{
		OFFSET -5.308129 -1.633274 1.361059 
		CHANNELS 3 Xrotation Zrotation Yrotation
		JOINT rShin
		{
			OFFSET 2.041588 -20.007561 0.000000 
			CHANNELS 3 Xrotation Zrotation Yrotation
			JOINT rFoot
			{
				OFFSET 0.000000 -19.190928 -1.224953 
				CHANNELS 3 Xrotation Yrotation Zrotation
				End Site
				{
					OFFSET 0.000000 -2.449906 4.627600 
				}
			}
		}
	}
}
MOTION
Frames: 15
Frame Time: 0.033333
-1.002840 49.692238 -0.274779 2.015963 -1.926532 -12.419429 0.000000 0.000000 0.000000 0.988934 1.805909 1.631896 7.145986 2.771967 -1.867302 15.900390 10.687584 -3.983808 -0.766916 -2.978703 1.408272 -47.714050 7.317401 2.305878 -27.971014 -3.981713 28.163069 -2.245261 -4.454043 -3.237108 4.708166 5.415555 1.240567 40.678009 -14.160339 -6.143747 45.603546 1.904024 37.546566 -6.981040 4.924731 -3.892719 7.418430 12.057282 10.285809 0.616262 -1.915738 21.458485 -3.865500 0.383681 -11.430757 1.239262 -8.269914 -7.189180 -0.478308 4.272961 5.139127 -1.636616 -0.083437 5.689705 
-1.306268 49.715645 -0.476798 2.236256 -1.543154 -14.204480 0.000000 0.000000 0.000000 1.438307 1.435189 1.279874 7.133576 2.585445 -2.492544 16.961424 10.794362 -4.016221 -1.503657 -4.053323 1.811111 -51.670628 7.470554 4.110290 -30.587656 -4.173460 31.628727 -3.637437 -4.814833 -3.118207 4.995325 6.870628 1.605987 45.100967 -14.435622 -3.191435 45.971855 2.653709 37.510159 -5.136139 5.210578 -3.775234 7.370683 12.018766 10.476826 0.887864 -1.907981 22.566492 -3.744223 0.432397 -11.892226 0.379424 -8.116314 -6.760367 -0.361705 4.262328 6.523775 -1.317243 -0.085329 4.959534 
-1.634676 49.739048 -0.646867 2.574171 -1.417571 -15.991450 0.000000 0.000000 0.000000 1.784867 1.513573 0.654585 7.313988 2.369626 -3.078788 17.370945 10.356478 -3.970670 -1.792211 -4.620540 2.135008 -56.125050 7.425040 4.314109 -33.283390 -3.739466 31.977573 -6.669569 -4.790514 -2.901589 4.606543 7.567542 1.894139 50.568443 -14.929807 -1.570197 45.368496 3.644832 35.487194 -6.236021 4.788855 -3.819221 7.252322 12.272181 10.645332 1.395044 -1.710042 23.329258 -3.114204 0.381376 -12.638774 -0.468985 -7.665952 -6.197526 -0.264292 4.309910 7.691569 -1.068061 -0.012863 4.176900 
-2.071770 49.765099 -0.820962 3.034441 -0.853520 -18.195488 0.000000 0.000000 0.000000 1.852870 1.201150 0.341927 7.409201 2.057046 -3.341895 17.357895 9.879914 -3.894830 -1.876759 -4.548295 2.212728 -60.731106 7.241070 4.432735 -36.309326 -3.205988 30.711054 -7.906079 -4.052618 -2.872038 4.327211 8.685977 1.948363 56.280327 -16.657248 -2.351575 44.217857 4.485651 32.868069 -8.786376 2.283026 -3.865994 7.184407 12.369625 10.953023 1.492629 -1.867553 24.456320 -1.929806 0.223526 -13.222115 -1.620702 -7.339500 -5.405603 -0.098236 4.136740 9.376921 -0.913513 -0.025077 3.363483 
-2.551251 49.792278 -0.995474 3.614424 -0.482737 -21.143438 0.000000 0.000000 0.000000 1.789815 1.220700 0.127132 7.590362 1.765014 -3.087179 16.816528 9.064508 -3.588291 -1.890540 -4.801155 2.164875 -63.966503 7.495562 4.991081 -39.842068 -2.687045 29.742161 -6.959989 -2.355140 -3.065675 4.222073 10.108739 1.828245 61.208187 -18.847517 -3.918877 42.368084 5.139058 30.325186 -11.063540 0.078231 -3.776325 7.357297 12.708084 11.791026 1.520419 -2.224858 26.113480 -1.077347 0.138979 -13.784307 -2.956980 -6.556537 -4.347988 0.117162 3.953928 11.045993 -0.616361 -0.007964 2.466831 
-3.052413 49.805721 -1.175668 4.359480 -0.221965 -24.609592 0.000000 0.000000 0.000000 1.677040 1.552732 -0.097620 7.227876 1.405083 -2.334480 17.102129 8.349021 -2.871210 -1.722252 -5.036529 2.087298 -65.958649 7.601303 6.462478 -43.118958 -2.471085 29.024435 -4.340871 -1.570488 -3.239297 4.095105 11.227554 1.696184 65.286034 -20.726742 -4.810681 39.826958 5.911184 26.385323 -12.832879 -4.676731 -3.382695 7.613821 13.160487 12.808496 1.571168 -2.639135 28.080757 -0.360391 0.040132 -14.301432 -4.361721 -5.424677 -3.107113 0.289375 3.781046 12.867694 -0.250314 0.022610 1.576596 
-3.620588 49.785965 -1.305846 4.756066 0.276151 -27.910460 0.000000 0.000000 0.000000 1.555077 1.738196 -0.566442 7.185768 1.005381 -1.767820 16.563286 7.134206 -2.036148 -1.752092 -5.239852 1.999781 -67.076912 7.666794 8.492421 -46.092091 -2.275763 29.395082 -2.292151 -0.780412 -3.350258 4.667995 12.498503 1.402970 67.941826 -23.952106 -5.455494 38.464012 6.136734 25.414063 -11.443473 -7.807288 -3.141453 8.121451 13.365560 13.629086 1.725157 -2.830096 30.012596 0.354257 -0.056160 -15.209583 -5.526719 -4.608840 -2.346045 0.944988 3.765927 13.918180 -0.112678 -0.002377 0.584209 
-4.331604 49.774647 -1.297644 4.268507 0.242936 -30.928001 0.000000 0.000000 0.000000 2.004785 1.825980 -0.830279 7.415982 1.366735 -1.474888 16.751577 5.682258 -1.245742 -1.918826 -4.313439 2.427485 -68.854797 7.041846 9.976559 -47.872837 -1.902699 31.303432 -2.379400 -0.961441 -3.341635 4.255065 13.185145 1.818799 69.099564 -26.827911 -4.236722 36.819637 6.228936 28.613960 -6.500683 -9.029294 -3.252034 9.749958 13.588694 14.936992 1.872945 -2.913713 31.710850 1.198664 -0.175238 -16.227396 -6.069155 -3.639390 -1.891090 3.284801 3.404667 12.085066 -1.119440 0.042045 -0.581137 
-5.039073 49.754948 -1.293334 3.560321 0.262119 -32.988651 0.000000 0.000000 0.000000 2.550318 1.913211 -1.709662 7.495039 1.366758 -1.435837 17.151335 5.038933 -0.411144 -2.879719 -3.726205 2.932252 -69.549637 6.192657 11.087675 -49.470009 -1.584024 33.243999 -3.961799 -1.353865 -3.263395 3.779366 13.660110 2.242560 69.039421 -29.012957 -2.545557 35.389160 6.155971 33.650612 -0.874066 -7.403226 -3.530213 11.022474 13.436044 15.461095 2.116726 -2.327651 33.235001 2.771668 -0.432948 -17.490339 -5.962280 -3.415322 -2.325224 5.221857 3.260529 8.560369 -2.292850 0.038444 -1.110645 
-5.714919 49.680828 -1.311122 3.451532 0.008070 -34.267578 0.000000 0.000000 0.000000 2.659436 2.428968 -2.687685 7.665157 1.874058 -1.817351 17.602015 5.273435 -0.058346 -4.110169 -2.120104 3.099488 -70.256340 5.811491 11.989335 -50.723885 -1.211919 34.711426 -7.147431 -1.974633 -3.087953 2.516091 14.187215 2.413131 68.157440 -31.234642 -0.271141 34.031044 6.316379 36.882603 0.993172 -4.860489 -3.548702 11.581279 13.554358 15.622874 2.048233 -1.015868 34.641907 5.083983 -0.843391 -18.568930 -6.717904 -2.870973 -2.793918 8.067994 3.727771 6.692822 -4.016320 0.114910 -2.523934 
-6.463557 49.606415 -1.244431 2.569529 -0.335779 -35.049568 0.000000 0.000000 0.000000 3.121833 2.707584 -4.193995 8.175945 1.726844 -2.520447 17.490194 5.566270 0.402292 -5.227262 -2.478645 3.561957 -68.854607 6.263802 12.582079 -53.213100 -0.813292 35.374783 -9.077523 -1.408572 -3.048129 1.155934 14.242558 2.848369 66.284355 -32.961678 1.592883 33.210945 6.895006 35.986111 1.072092 -4.405704 -3.539404 10.412361 13.499821 14.652480 5.787380 1.232027 37.152496 7.544911 -1.271285 -19.040173 -4.935006 -2.291682 -2.514594 6.985162 3.483532 6.734191 -3.567992 0.084634 -1.307158 
-7.197543 49.484085 -1.200849 2.340471 -0.534361 -35.245930 0.000000 0.000000 0.000000 3.068931 3.043739 -5.270745 8.088295 2.242074 -3.430074 17.396612 5.331770 0.569400 -6.510236 -1.826761 3.571840 -67.860916 6.349487 13.656557 -54.900452 -0.722318 35.266342 -7.948288 -0.238607 -3.191068 0.022551 14.510271 2.832706 64.821358 -34.373768 1.947630 32.158619 7.075665 34.949284 -2.157578 -3.833379 -3.503630 1.286842 14.903790 11.813747 21.917114 3.057588 39.385098 5.662113 -0.950452 -19.524233 -4.469650 -1.542120 -2.031807 7.650811 3.318628 6.829795 -4.719464 0.067847 -1.424628 
-7.858515 49.490902 -1.036065 1.564144 -0.794364 -35.570461 0.000000 0.000000 0.000000 3.323539 3.273573 -5.907740 8.302252 2.435179 -4.095149 17.239996 5.810390 0.422708 -7.396997 -1.496950 3.835652 -67.040642 6.235269 14.503737 -55.094414 -0.890004 34.724533 -4.065437 0.604203 -3.361461 -0.724808 14.807039 3.100573 63.081871 -34.786251 1.486010 30.060127 7.212917 33.120842 -5.460367 -3.520341 -3.503451 -3.192808 14.896060 9.485086 30.289427 4.179305 33.215958 3.067440 -0.443980 -16.950274 -2.641871 -1.208769 -2.207607 6.695914 3.357958 6.387910 -4.678222 0.070119 -1.476528 
-8.420978 49.529907 -0.834151 0.999291 -0.573750 -36.408436 0.000000 0.000000 0.000000 3.293683 3.273515 -5.917489 8.194916 2.628858 -4.428122 16.903839 5.869110 0.186572 -7.736007 -1.262529 3.812943 -66.685295 5.893504 14.616817 -54.273350 -1.182257 34.646229 0.977728 0.812965 -3.482305 -0.820605 15.134552 3.065326 60.961712 -34.762058 0.975913 28.506414 7.353621 31.223534 -8.028420 -3.705760 -3.495291 -7.196696 13.992081 7.114775 35.834850 4.408076 25.889263 0.623609 -0.065640 -13.961747 -1.735906 -1.306713 -2.207037 6.705155 3.270231 7.594357 -5.098081 0.137549 -1.874241 
-8.906203 49.548244 -0.594614 0.563818 -0.084933 -37.753963 0.000000 0.000000 0.000000 3.066278 3.188790 -5.428345 7.972649 2.629767 -4.164280 16.110260 5.888671 -0.029142 -7.774417 -1.009339 3.589865 -66.532822 5.203659 14.610967 -52.080276 -1.795769 34.944130 5.038763 0.630529 -3.581469 -0.223262 15.212078 2.821297 59.008137 -34.525455 0.373129 27.942213 7.309073 30.537783 -9.161465 -4.755114 -3.417035 -10.336728 12.180518 5.491418 38.655331 4.335664 24.038774 0.412481 -0.000322 -12.447871 -0.955842 -1.696798 -2.300297 6.494823 3.249231 9.559645 -5.567232 0.134889 -2.111887 
